<?xml version="1.0" encoding="iso-8859-1"?>
<!-- Uploaded to: SVG Repo, www.svgrepo.com, Generator: SVG Repo Mixer Tools -->
<!DOCTYPE svg PUBLIC "-//W3C//DTD SVG 1.1//EN" "http://www.w3.org/Graphics/SVG/1.1/DTD/svg11.dtd">
<svg fill="white" version="1.1" id="Capa_1" xmlns="http://www.w3.org/2000/svg" xmlns:xlink="http://www.w3.org/1999/xlink" 
     width="800px" height="500px" viewBox="0 0 574.779 574.778" 
     xml:space="preserve">
    <g>
        <g>
            <circle cx="170.569" cy="42.252" r="42.252" />
            <path d="M53.945,289.758c11.623,3.562,23.93-2.964,27.501-14.583c0.01,0,32.91-107.272,32.91-107.272
                c0.191-0.454,1.176-2.338,3.476-2.338c0.21,0,4.638,0,4.638,0h0.009c1.31-0.02,2.075,1.095,1.726,2.348L58.338,383.466
                c-0.354,1.258,0,3.452,2.295,3.452h46.206c1.311,0,2.267,1.062,2.267,2.371c0,0-0.01,157.036-0.01,157.093
                c0,15.683,12.713,28.396,28.396,28.396s28.396-12.714,28.396-28.396l0.009-157.093c0-1.31,1.057-2.366,2.367-2.366h0.039h4.537
                h0.039c1.31,0,2.366,1.057,2.366,2.366l0.009,157.093c0,15.683,12.713,28.396,28.396,28.396s28.396-12.714,28.396-28.396
                c0-0.057-0.01-157.093-0.01-157.093c0-1.31,0.956-2.371,2.266-2.371h46.206c2.295,0,2.649-2.194,2.295-3.452l-65.871-215.553
                c-0.349-1.258,0.421-2.372,1.726-2.348h0.01c0,0,4.427,0,4.638,0c2.3,0,3.285,1.884,3.476,2.338
                c0,0,36.127,117.887,36.137,117.887c0.851,3.251,2.242,5.302,3.987,7.439c4.69,6.239,12.125,10.294,20.531,10.294
                c9.825,0,18.355-5.518,22.678-13.622c0.354-0.65,1.721-3.997,2.013-5.025c3.347-10.882,35.859-116.973,35.859-116.973
                c0.191-0.454,1.176-2.338,3.476-2.338c0.211,0,4.638,0,4.638,0h0.01c1.311-0.02,2.075,1.095,1.727,2.348l-65.857,215.553
                c-0.354,1.258,0,3.452,2.295,3.452h46.206c1.311,0,2.267,1.062,2.267,2.371c0,0-0.01,157.036-0.01,157.093
                c0,15.683,12.714,28.396,28.396,28.396c15.683,0,28.396-12.714,28.396-28.396l0.01-157.093c0-1.31,1.057-2.366,2.366-2.366h0.038
                h4.538h0.038c1.31,0,2.366,1.057,2.366,2.366l0.01,157.093c0,15.683,12.714,28.396,28.392,28.396
                c15.682,0,28.396-12.714,28.396-28.396c0-0.057-0.01-157.093-0.01-157.093c0-1.31,0.956-2.371,2.267-2.371h46.206
                c2.295,0,2.648-2.194,2.295-3.452l-65.867-215.553c-0.349-1.258,0.421-2.372,1.727-2.348h0.01c0,0,4.427,0,4.638,0
                c2.3,0,3.284,1.884,3.476,2.338c0,0,32.9,107.272,32.909,107.272c3.572,11.619,15.879,18.145,27.502,14.583
                c11.628-3.566,18.164-15.883,14.598-27.506c-0.015-0.043-32.881-107.368-32.991-107.736
                c-5.029-17.485-17.284-57.293-51.881-57.293h-92.818c-37.137,0-46.737,39.809-51.771,57.293c0,0-9.376,30.639-18.585,60.736
                c-9.208-30.098-18.584-60.736-18.584-60.736c-5.03-17.485-14.636-57.293-51.767-57.293h-92.814
                c-34.597,0-46.851,39.809-51.881,57.293c-0.105,0.373-32.976,107.693-32.99,107.736
                C35.781,273.875,42.316,286.191,53.945,289.758z"/>
            <circle cx="404.209" cy="42.252" r="42.252" />
        </g>
    </g>
</svg>
